<svg xmlns="http://www.w3.org/2000/svg" viewBox="0 0 456 24" width="456" height="24"><path d="M20 16c.552 0 1 .448 1 1 0 .513-.386.936-.883.993L20 18H4c-.552 0-1-.448-1-1 0-.513.386-.936.883-.993L4 16h16zM21 17zM4 6h16c.552 0 1 .448 1 1 0 .513-.386.936-.883.993L20 8H4c-.552 0-1-.448-1-1 0-.513.386-.936.883-.993L4 6zM21 17zM4 11h16c.552 0 1 .448 1 1 0 .513-.386.936-.883.993L20 13H4c-.552 0-1-.448-1-1 0-.513.386-.936.883-.993L4 11zM43.910709 16.136424c.550528.009353.989722.46488.980345 1.0168-.008715.512926-.400871.929325-.897514.977895l-.116806.005016-15.95732-.271118c-.550528-.009353-.989722-.46488-.980345-1.0168.008714-.512926.40087-.929325.897513-.977895l.116807-.005016 15.95732.271118zM44.832137 17.252147zM28.19325 5.776493l15.953226.451824c.550386.015588.984394.47606.968766 1.027839-.014523.512794-.41137.924724-.90853.967666l-.116857.003694-15.953226-.451825c-.550386-.015588-.984394-.47606-.968766-1.027838.014523-.512795.41137-.924725.90853-.967667l.116857-.003693zM44.878679 17.202269zm-16.835234-6.382947l15.97283.36187c.551062.012484.988154.470501.975651 1.02236-.011619.512868-.406544.92703-.903991.972774l-.11696.004352-15.972829-.36187c-.551062-.012484-.988155-.470501-.975652-1.02236.01162-.512868.406544-.92703.903991-.972774l.11696-.004352zM67.57572 16.605193c.544034.04213.95098.522984.908361 1.073337-.039607.511468-.452696.903746-.946925.922644l-.115852-.001951L51.6522 17.378077c-.544034-.04213-.95098-.522984-.908361-1.073336.039608-.511469.452696-.903746.946925-.922644l.115852.00195 15.769104 1.221146zM68.180714 18.101377zM52.928069 5.033885l15.685289 2.031642c.541142.070091.922784.571266.851878 1.118693-.065896.50875-.498639.879232-.993185.872652l-.115598-.007914-15.685288-2.031641c-.541143-.070092-.922784-.571267-.851879-1.118694.065896-.50875.49864-.879232.993185-.872652l.115598.007914zM68.41201 17.893182zm-16.181706-7.705393l15.810721 1.635031c.54547.056409.942087.547813.885306 1.096885-.05277.510279-.477714.89159-.974698.8975l-.116336-.004994-15.810721-1.635031c-.54547-.056409-.942087-.547813-.885306-1.096885.05277-.510279.477715-.89159.974699-.8975l.116335.004994zM90.809441 17.482876c.524826.106675.861538.632274.751588 1.173213-.102181.50272-.553434.84265-1.037321.802462l-.112635-.01575-15.212353-3.092014c-.524826-.106674-.861538-.632274-.751588-1.173213.102181-.50272.553434-.84265 1.037321-.802462l.112635.015751 15.212353 3.092013zM90.608675 19.587608zM78.635878 3.785972L93.30038 8.877985c.505925.175674.769577.741463.58851 1.26292-.168276.484616-.66081.761367-1.135023.657043l-.10953-.030623-14.664503-5.092012c-.505926-.175675-.769578-.741463-.58851-1.262921.168275-.484616.660809-.761367 1.135022-.657042l.10953.030622zM91.296624 19.159612zM76.76487 8.957964l15.168858 4.155133c.523325.143352.829695.691778.68386 1.224165-.13553.494773-.613232.802502-1.099474.728408l-.112771-.023634-15.168858-4.155133c-.523325-.143352-.829695-.691778-.68386-1.224165.13553-.494773.613232-.802502 1.099474-.728408l.112771.023634zM113.274497 18.711312c.474648.20784.68017.786902.458757 1.29255-.20577.469923-.70735.712066-1.157568.57715l-.103413-.037642-13.757892-6.024325c-.474647-.20784-.68017-.786902-.458756-1.29255.20577-.469923.70735-.712066 1.157568-.57715l.103413.037642 13.757891 6.024325zM111.352499 21.226764zm-5.34487-18.63014l11.60359 9.53566c.400323.32898.440787.9421.09032 1.36857-.325706.396339-.874207.493097-1.270833.240933l-.089295-.064321-11.60359-9.53566c-.400323-.32898-.440787-.9421-.09032-1.36857.325706-.39634.874207-.493097 1.270833-.240934l.089296.064322zM112.962943 20.803475zM102.1181 7.110608l13.160038 8.074056c.45402.278555.58822.886487.299553 1.356992-.268273.437263-.806967.603026-1.245559.40081l-.099893-.053074L101.0722 8.815336c-.454021-.278555-.588221-.886487-.299553-1.356992.268273-.437263.806966-.603026 1.245558-.40081l.099894.053074zM134.701932 19.786664c.369186.326214.372173.926687.006667 1.34034-.339682.384429-.877934.4733-1.248077.222303l-.082887-.063898-10.701052-9.45549c-.369186-.326215-.372173-.926687-.006667-1.340341.339682-.384428.877933-.4733 1.248077-.222302l.082887.063898 10.701052 9.45549zM130.193415 21.287488zm4.865709-18.097792l5.092696 13.341036c.175698.460266-.100248.993586-.615952 1.190446-.479268.182952-.997315.011954-1.208759-.382124l-.04378-.09506-5.092696-13.341036c-.175698-.460266.100249-.993586.615952-1.190446.479268-.182952.997315-.011954 1.208759.382124l.04378.09506zM133.007729 21.79099zM128.85307 5.258479l8.552135 12.34406c.295049.42587.166254 1.026636-.287489 1.340995-.421684.292149-.97571.235243-1.288214-.115733l-.068292-.08628-8.552135-12.34406c-.295048-.42587-.166253-1.026636.28749-1.340995.421684-.292149.97571-.235243 1.288214.115733l.068291.08628zM155.659866 19.904171c.21961.408353.003281.951961-.482875 1.213412-.451808.242979-.977918.157779-1.225846-.182889l-.052713-.083237-6.36547-11.8363c-.219608-.408353-.00328-.951961.482876-1.213412.451808-.242979.977918-.157779 1.225846.182889l.052713.083237 6.36547 11.8363zM149.440504 18.254712zM163.34707 6.787048l-2.996148 13.101157c-.103367.45199-.623984.718946-1.162092.595885-.500089-.114368-.840161-.524736-.802659-.944398l.015086-.097363 2.996148-13.101156c.103367-.45199.623984-.718946 1.162091-.595885.50009.114367.840162.524735.80266.944397l-.015086.097363z" fill="#000000"/><path d="M152.59712 20.77279zm3.87793-16.109634l1.946394 14.4059c.06715.497003-.322316.960353-.869346 1.034263-.50838.068687-.974528-.222218-1.091475-.662069l-.02117-.104406-1.946394-14.4059c-.06715-.497003.322317-.960353.869346-1.034263.508381-.068687.974529.222218 1.091476.662069l.02117.104406z" fill="#000000"/><g><path d="M177.19899 19.07779c.078284.430884-.298965.86067-.842073.959344-.504738.091703-.975667-.133988-1.102234-.51175l-.02348-.090077-2.269123-12.48936c-.078285-.430884.298964-.86067.842073-.959344.504737-.091703.975666.133988 1.102233.51175l.02348.090077 2.269123 12.48936zM171.478747 13.836232zm17.236364-2.41078l-8.630818 9.30817c-.297763.321132-.867937.277155-1.27271-.098162-.376174-.3488-.478135-.860967-.251837-1.188858l.05798-.072825 8.630818-9.30817c.297763-.321133.867937-.277156 1.27271.098161.376174.3488.478134.860968.251837 1.188858l-.05798.072826z" fill="#000000"/><path d="M173.566873 18.218595zm9.960142-12.71125l-3.953348 13.545642c-.13639.467324-.677143.721088-1.207036.566437-.492455-.143725-.80314-.589024-.735057-1.025755l.02219-.101014 3.953348-13.545642c.13639-.467324.677143-.721088 1.207036-.566437.492455.143725.80314.589024.735057 1.025755l-.02219.101014z" fill="#000000"/></g><g><path d="M199.601902 17.909636c-.028093.416734-.49788.72482-1.04863.687692-.511838-.034505-.914235-.354369-.94581-.733415l-.00103-.0888.814312-12.079268c.028093-.416735.49788-.724821 1.04863-.687693.511838.034505.914235.354369.94581.733415l.00103.0888-.814312 12.079269zM195.758718 10.140563zm16.188939 4.938026l-11.096469 4.841508c-.382828.167032-.872686-.108023-1.093433-.613963-.20515-.470194-.106607-.974699.215282-1.177332l.078344-.04182 11.096468-4.841508c.382828-.167032.872686.108024 1.093433.613963.20515.470194.106608.974699-.215282 1.177332l-.078343.04182z" fill="#000000"/><path d="M196.14646 15.458164zm13.331077-8.51474l-7.929153 11.26437c-.273556.38862-.861913.44615-1.313298.128413-.419493-.295287-.5741-.810522-.37441-1.193231l.052257-.0864 7.929153-11.26437c.273556-.38862.861913-.44615 1.313297-.128413.419493.295287.5741.810522.374411 1.193231l-.052257.0864z" fill="#000000"/></g><g><path d="M222.651856 16.777659c-.102057.388996-.61822.591014-1.15215.450933-.496206-.130185-.833993-.509546-.79724-.874249l.014862-.084226L223.6755 4.994855c.102057-.388996.61822-.591014 1.15215-.450933.496206.130185.833993.509546.797239.874249l-.01486.084226-2.958174 11.275262z" fill="#000000"/><path d="M220.994075 7.65132zm13.382473 9.762571l-11.603216 1.116998c-.400311.038537-.76813-.376126-.821025-.925586-.049157-.51064.190237-.95864.5452-1.050075l.084178-.015136 11.603216-1.116998c.400311-.038536.76813.376127.821024.925586.049158.51064-.190237.95864-.5452 1.050075l-.084177.015136z" fill="#000000"/><path d="M219.744212 13.120442zm14.82685-4.739507l-10.294789 8.76123c-.35517.302263-.933776.206403-1.29153-.213973-.332479-.390675-.358266-.924175-.075426-1.23973l.070744-.069397 10.294788-8.76123c.35517-.302263.933776-.206403 1.29153.213973.33248.390675.358266.924175.075427 1.23973l-.070744.069397z" fill="#000000"/></g><g><path d="M246.107181 15.809593c-.15257.359208-.68874.4756-1.196811.259802-.472175-.20055-.754823-.617101-.66992-.962802l.025896-.078873 4.422296-10.411823c.152569-.359208.68874-.4756 1.19681-.259803.472175.20055.754824.617102.66992.962802l-.025895.078873-4.422296 10.411824z" fill="#000000"/><path d="M246.430988 6.128516zm10.293223 12.629629l-11.192016-1.643637c-.386124-.056705-.634407-.545973-.554201-1.092115.074538-.507556.406007-.886414.761941-.891754l.08286.005094 11.192015 1.643636c.386125.056706.634407.545973.554202 1.092115-.074539.507556-.406008.886414-.761942.891754l-.082859-.005093z" fill="#000000"/><path d="M243.855465 11.309232zm15.278865-1.69853l-11.615135 6.522456c-.400723.225025-.9453.01703-1.215577-.464276-.25118-.4473-.178079-.973481.154807-1.225785l.081508-.053799 11.615136-6.522456c.400722-.225025.9453-.01703 1.215576.464276.25118.4473.17808.973481-.154807 1.225785l-.081508.053799z" fill="#000000"/></g><g><path d="M269.803496 15.025111c-.18711.33203-.72926.381557-1.210157.110554-.44692-.251856-.684591-.691707-.565782-1.018637l.033561-.073812 5.423495-9.624018c.18711-.332028.729261-.381556 1.210157-.110553.44692.251856.684592.691706.565782 1.018636l-.03356.073812-5.423496 9.624018z" fill="#000000"/><path d="M271.75302 5.248992zm7.515511 14.222668l-10.444833-3.597426c-.360347-.12411-.506912-.648419-.327155-1.17033.167058-.485037.556788-.798192.899793-.74034l.078657.019688 10.444833 3.597426c.360347.124111.506912.64842.327155 1.17033-.167057.485037-.556788.798192-.899793.74034l-.078657-.019688z" fill="#000000"/><path d="M268.183916 9.955906zm15.211442.64103l-12.311696 4.675828c-.424754.161316-.928541-.126574-1.124526-.64261-.182137-.479579-.035301-.987824.326893-1.186354l.087544-.040736 12.311697-4.675828c.424754-.161316.92854.126574 1.124525.64261.182138.479579.035302.987824-.326893 1.186354l-.087544.040736z" fill="#000000"/></g><g><path d="M293.640082 14.408489c-.210844.30903-.752035.307348-1.208016-.003756-.423764-.289124-.625746-.743622-.482995-1.053987l.038907-.069446 6.111422-8.95742c.210844-.309032.752035-.30735 1.208016.003755.423765.289124.625746.743622.482995 1.053986l-.038907.069447-6.111422 8.95742z" fill="#000000"/><path d="M296.857231 4.766219zm5.225915 15.047661l-9.646726-4.952328c-.332812-.170856-.398317-.70807-.146217-1.19914.234288-.456375.6602-.713209.985884-.610085l.073739.029986 9.646725 4.952328c.332812.170856.398318.70807.146218 1.19914-.234289.456375-.660201.713209-.985885.610086l-.073738-.029987z" fill="#000000"/><path d="M292.572782 8.96276zm14.919968 2.3987l-12.651291 3.215453c-.43647.110933-.901061-.23323-1.037035-.76822-.126366-.497193.07465-.984732.45359-1.139855l.090788-.030298 12.651291-3.215453c.43647-.110933.90106.23323 1.037034.76822.126367.497193-.074649.984732-.453589 1.139855l-.090788.030298z" fill="#000000"/></g><g><path d="M317.556682 13.935813c-.227173.290503-.764452.2503-1.199284-.089737-.40411-.316014-.578465-.779728-.418828-1.076398l.042637-.065887 6.584734-8.420377c.227173-.290503.764452-.250301 1.199283.089737.40411.316013.578466.779727.418829 1.076398l-.042637.065886-6.584734 8.420378z" fill="#000000"/><path d="M321.729502 4.516826zm3.432966 15.4339l-8.92645-5.880473c-.307963-.202877-.311447-.741646-.007778-1.202611.282215-.428397.73027-.63977 1.038904-.504708l.069126.037156 8.92645 5.880473c.307963.202876.311447.741646.007778 1.20261-.282215.428398-.73027.63977-1.038904.504708l-.069126-.037155z" fill="#000000"/><path d="M316.943219 8.244222zm14.564174 3.695072l-12.794924 2.095126c-.441425.072282-.872077-.311166-.961277-.855912-.082898-.506257.157425-.974243.545656-1.095574l.092432-.022228 12.794924-2.095126c.441424-.072282.872077.311166.961277.855912.082898.506257-.157425.974243-.545657 1.095574l-.092431.022228z" fill="#000000"/></g><g><path d="M341.517453 13.58409c-.238323.276229-.770946.20776-1.18889-.152832-.388416-.335115-.542035-.804599-.370614-1.09054l.045214-.063121 6.90793-8.006636c.238325-.276229.770948-.20776 1.188892.152832.388415.335115.542034.804599.370614 1.09054l-.045215.063121-6.90793 8.006636z" fill="#000000"/><path d="M346.388064 4.39842zm2.087542 15.584702l-8.335526-6.507284c-.287575-.224502-.245289-.75984.09439-1.194952.315679-.40437.77707-.58081 1.071068-.423608l.065261.042066 8.335526 6.507284c.287576.224502.24529.75984-.09439 1.194952-.315679.40437-.77707.58081-1.071068.423608l-.065261-.042066z" fill="#000000"/><path d="M341.258024 7.734305zm14.227613 4.629521l-12.837915 1.262742c-.442908.043565-.846224-.366927-.900258-.916276-.050217-.510536.218091-.961968.61129-1.057918l.093192-.0162 12.837915-1.262742c.442908-.043565.846224.366927.900258.916276.050216.510536-.218092.961968-.61129 1.057918l-.093192.0162z" fill="#000000"/></g><g><path d="M365.501249 13.333775c-.245752.26582-.774161.177438-1.179485-.197285-.376687-.348247-.51544-.82128-.336028-1.09931l.046949-.061094 7.123246-7.704962c.245752-.265822.77416-.177438 1.179484.197284.376687.348247.51544.82128.336028 1.09931l-.046948.061095-7.123246 7.704962z" fill="#000000"/><path d="M370.859815 4.348952zm1.127918 15.621407l-7.888512-6.919426c-.272154-.23872-.197612-.76926.166389-1.184239.338282-.38566.807528-.53673 1.090151-.364646l.062301.045336 7.888512 6.919426c.272153.23872.197611.76926-.166389 1.184238-.338282.38566-.807528.53673-1.090152.364647l-.0623-.045336z" fill="#000000"/><path d="M365.502 7.384644zm13.95146 5.278156l-12.83569.671667c-.442832.023173-.825642-.405409-.854487-.956654-.026808-.5123.260748-.950925.656478-1.028711l.093496-.011902 12.83569-.671667c.442832-.023173.825642.405409.854488.956654.026807.5123-.26075.950925-.65648 1.028711l-.093494.011902z" fill="#000000"/></g><g><path d="M389.49588 13.16903c-.250413.258858-.77564.157459-1.172381-.226339-.36871-.356681-.497627-.8318-.313132-1.104499l.048046-.059734 7.258368-7.503156c.250414-.258859.775641-.15746 1.172382.226338.36871.356682.497627.831801.313132 1.1045l-.048046.059733-7.258368 7.503156z" fill="#000000"/><path d="M395.171091 4.332193zm.496587 15.613553l-7.582932-7.174985c-.261611-.247537-.166024-.773853.213365-1.174812.352584-.372631.82625-.506791 1.10097-.325322l.060261.047383 7.582932 7.174985c.26161.247537.166023.773853-.213365 1.174812-.352584.37263-.82625.50679-1.10097.325321l-.060261-.047382z" fill="#000000"/><path d="M389.671525 7.16067zm13.753237 5.697354l-12.819386.283463c-.442268.00978-.811115-.430174-.823318-.98204-.01134-.512874.288576-.94261.685518-1.0084l.093587-.009071 12.819386-.283463c.442269-.00978.811115.430174.823318.98204.01134.512874-.288576.94261-.685518 1.0084l-.093587.009071z" fill="#000000"/></g><g><path d="M413.494714 13.077265c-.252932.254942-.776246.146324-1.16811-.242452-.364178-.361307-.487596-.837503-.30033-1.107188l.048642-.058967 7.331378-7.389628c.252932-.254942.776246-.146323 1.16811.242452.364179.361308.487596.837503.30033 1.107188l-.048642.058967-7.331378 7.389628z" fill="#000000"/><path d="M419.344611 4.328306zm.14529 15.598151l-7.408941-7.311859c-.255608-.25226-.148371-.775857.23937-1.168746.360345-.36513.836213-.489803 1.106392-.303249l.059094.048486 7.408942 7.311859c.255608.25226.14837.775857-.23937 1.168746-.360345.36513-.836213.489804-1.106392.303249l-.059094-.048486z" fill="#000000"/><path d="M413.769019 7.038071zm13.637175 5.928136l-12.805195.067559c-.44178.00233-.802689-.443772-.8056-.995764-.002707-.512993.303986-.937617.701447-.996715l.093601-.007494 12.805196-.067559c.441779-.00233.802688.443772.8056.995764.002707.512993-.303987.937617-.701448.996715l-.0936.007494z" fill="#000000"/></g><g><path d="M437.494618 13.048528c-.25371.25371-.776404.142836-1.166727-.247487-.362745-.362746-.484438-.839265-.296313-1.108001l.048826-.058725 7.35391-7.35391c.25371-.25371.776404-.142837 1.166727.247486.362746.362746.484439.839265.296313 1.108001l-.048826.058726-7.35391 7.35391z" fill="#000000"/><path d="M443.39896 4.327891zm.035355 15.591705l-7.35391-7.35391c-.25371-.25371-.142837-.776404.247486-1.166727.362746-.362746.839265-.484439 1.108001-.296313l.058726.048826 7.35391 7.35391c.25371.25371.142836.776404-.247487 1.166727-.362746.362745-.839265.484438-1.108001.296313l-.058725-.048826z" fill="#000000"/><path d="M437.8 7zm13.6 6h-12.8c-.4416 0-.8-.448-.8-1 0-.513.3088-.936.7064-.993L438.6 11h12.8c.4416 0 .8.448.8 1 0 .513-.3088.936-.7064.993L451.4 13z" fill="#000000"/></g></svg>