<svg xmlns="http://www.w3.org/2000/svg" viewBox="0 0 512 512" width="512" height="512" class="lottie-svg" preserveAspectRatio="xMinYMin slice" style="width: 100%; height: 100%; transform: translate3d(0px, 0px, 0px);"><defs><clipPath id="__lottie_element_80"><rect width="512" height="512" x="0" y="0"></rect></clipPath></defs><g clip-path="url(#__lottie_element_80)"><g transform="matrix(0.9438552856445312,-0.1078757494688034,0.1078757494688034,0.9438552856445312,272.0035400390625,249.68069458007812)" opacity="1" style="display: block;"><g opacity="1" transform="matrix(1,0,0,1,0,0)"><path fill="rgb(158,118,61)" fill-opacity="1" d=" M105.56874084472656,-144.30792236328125 C125.333740234375,-145.61293029785156 174.75,-145.4459991455078 196.9219970703125,-118.0780029296875 C221.3939971923828,-87.87000274658203 226.77960205078125,-24.99226188659668 164.7111358642578,18.51654052734375 C112.17405700683594,55.60758590698242 50.485740661621094,-140.669921875 105.56874084472656,-144.30792236328125z"></path></g><g opacity="1" transform="matrix(1,0,0,1,0,0)"><path fill="rgb(237,172,170)" fill-opacity="1" d=" M125.27503967285156,-116.29551696777344 C125.27503967285156,-116.29551696777344 165.7429962158203,-124.37100219726562 182.61300659179688,-95.85700225830078 C196.36000061035156,-72.62200164794922 189.18870544433594,-31.824222564697266 166.29100036621094,-15.92199993133545 C108.79148864746094,23.238679885864258 107.54704284667969,-118.24451446533203 125.27503967285156,-116.29551696777344z"></path></g><g opacity="1" transform="matrix(1,0,0,1,0,0)"><path stroke-linecap="round" stroke-linejoin="round" fill-opacity="0" stroke="rgb(188,146,89)" stroke-opacity="1" stroke-width="10" d=" M203.90499877929688,-80.40599822998047 C203.90499877929688,-80.40599822998047 199.0709991455078,-120.1520004272461 162.7519989013672,-130.33399963378906"></path></g><g opacity="1" transform="matrix(1,0,0,1,0,0)"><path stroke-linecap="butt" stroke-linejoin="miter" fill-opacity="0" stroke-miterlimit="10" stroke="rgb(94,66,31)" stroke-opacity="1" stroke-width="8" d=" M105.56874084472656,-144.30792236328125 C125.333740234375,-145.61293029785156 174.75,-145.4459991455078 196.9219970703125,-118.0780029296875 C221.3939971923828,-87.87000274658203 225.49267578125,-23.276636123657227 164.7111358642578,18.51654052734375 C111.84886169433594,55.12264633178711 50.485740661621094,-140.669921875 105.56874084472656,-144.30792236328125z"></path></g><g opacity="1" transform="matrix(1,0,0,1,0,0)"><path fill="rgb(219,152,151)" fill-opacity="1" d=" M119.54904174804688,-89.72052001953125 C162.18504333496094,-111.87751770019531 189.31900024414062,-61.42399978637695 189.31900024414062,-61.42399978637695 C189.32899475097656,-61.42399978637695 189.3300018310547,-61.433998107910156 189.33999633789062,-61.433998107910156 C190.6230010986328,-73.86199951171875 188.73300170898438,-86.21900177001953 183.03399658203125,-95.85900115966797 C166.1699981689453,-124.37300109863281 125.7028579711914,-116.29451751708984 125.7028579711914,-116.29451751708984 C120.15585327148438,-116.90052032470703 118.4680404663086,-105.31151580810547 119.54904174804688,-89.72052001953125z"></path></g></g><g transform="matrix(0.9496831893920898,0.024533361196517944,-0.024533361196517944,0.9496831893920898,268.1256408691406,241.2537841796875)" opacity="1" style="display: block;"><g opacity="1" transform="matrix(1,0,0,1,0,0)"><path fill="rgb(158,118,61)" fill-opacity="1" d=" M-111.61181640625,-143.16712951660156 C-136.3350830078125,-144.69410705566406 -164.8179931640625,-145.4459991455078 -186.99000549316406,-118.0780029296875 C-211.46200561523438,-87.87000274658203 -212.9385223388672,-29.311899185180664 -161.6271209716797,13.618282318115234 C-112.22490692138672,54.859371185302734 -56.521419525146484,-139.65362548828125 -111.61181640625,-143.16712951660156z"></path><path stroke-linecap="butt" stroke-linejoin="miter" fill-opacity="0" stroke-miterlimit="10" stroke="rgb(94,66,31)" stroke-opacity="1" stroke-width="8" d=" M-111.61181640625,-143.16712951660156 C-136.3350830078125,-144.69410705566406 -164.8179931640625,-145.4459991455078 -186.99000549316406,-118.0780029296875 C-211.46200561523438,-87.87000274658203 -212.9385223388672,-29.311899185180664 -161.6271209716797,13.618282318115234 C-112.22490692138672,54.859371185302734 -56.521419525146484,-139.65362548828125 -111.61181640625,-143.16712951660156z"></path></g><g opacity="1" transform="matrix(1,0,0,1,0,0)"><path stroke-linecap="round" stroke-linejoin="round" fill-opacity="0" stroke="rgb(188,146,89)" stroke-opacity="1" stroke-width="10" d=" M-194.12600708007812,-81.40599822998047 C-194.12600708007812,-81.40599822998047 -189.29100036621094,-121.1520004272461 -152.9720001220703,-131.33399963378906"></path></g><g opacity="1" transform="matrix(1,0,0,1,0,0)"><path stroke-linecap="butt" stroke-linejoin="miter" fill-opacity="0" stroke-miterlimit="10" stroke="rgb(94,66,31)" stroke-opacity="1" stroke-width="8" d=" M-111.61181640625,-143.16712951660156 C-136.3350830078125,-144.64544677734375 -164.8179931640625,-145.4459991455078 -186.99000549316406,-118.0780029296875 C-211.46200561523438,-87.87000274658203 -212.9385223388672,-29.603975296020508 -161.6271209716797,13.618282318115234 C-112.32664489746094,54.976463317871094 -56.51845932006836,-139.71096801757812 -111.61181640625,-143.16712951660156z"></path></g><g opacity="1" transform="matrix(1,0,0,1,0,0)"><path fill="rgb(237,172,170)" fill-opacity="1" d=" M-123.35221099853516,-115.57392120361328 C-123.35221099853516,-115.57392120361328 -155.81199645996094,-124.37100219726562 -172.6820068359375,-95.85700225830078 C-186.4290008544922,-72.62200164794922 -177.77064514160156,-33.792537689208984 -156.36000061035156,-15.92199993133545 C-123.22315216064453,12.431623458862305 -105.62421417236328,-117.5229263305664 -123.35221099853516,-115.57392120361328z"></path></g><g opacity="1" transform="matrix(1,0,0,1,0,0)"><path fill="rgb(219,152,151)" fill-opacity="1" d=" M-117.20121002197266,-88.9989242553711 C-159.83721923828125,-111.15592193603516 -178.96299743652344,-61.42399978637695 -178.96299743652344,-61.42399978637695 C-178.97300720214844,-61.42399978637695 -178.97300720214844,-61.433998107910156 -178.98300170898438,-61.433998107910156 C-180.26600646972656,-73.86199951171875 -178.3769989013672,-86.21900177001953 -172.67799377441406,-95.85900115966797 C-155.81399536132812,-124.37300109863281 -123.35521697998047,-115.57292175292969 -123.35521697998047,-115.57292175292969 C-117.80821228027344,-116.17892456054688 -116.1202163696289,-104.58992004394531 -117.20121002197266,-88.9989242553711z"></path></g></g><g transform="matrix(0.949999988079071,0,0,0.949999988079071,256,256)" opacity="1" style="display: block;"><g opacity="1" transform="matrix(1,0,0,1,0,0)"><path fill="rgb(158,118,61)" fill-opacity="1" d=" M168.71095275878906,-20.23118019104004 C146.7119598388672,-64.22618103027344 159.22900390625,-66.9280014038086 146.0260009765625,-110.81300354003906 C130.8209991455078,-161.3520050048828 82.5510025024414,-207.09300231933594 5.302999973297119,-207.09300231933594 C-72.7770004272461,-207.09300231933594 -120.21499633789062,-161.3520050048828 -135.4199981689453,-110.81300354003906 C-148.6230010986328,-66.9280014038086 -134.58843994140625,-63.857078552246094 -153.03396606445312,-18.86408042907715 C-173.28607177734375,30.53720474243164 -191.38832092285156,159.47618103027344 5.8394293785095215,159.47618103027344 C203.06716918945312,159.47618103027344 192.86495971679688,28.073820114135742 168.71095275878906,-20.23118019104004z"></path></g><g opacity="1" transform="matrix(1,0,0,1,0,0)"><path fill="rgb(188,146,89)" fill-opacity="1" d=" M144.8203887939453,-17.247892379760742 C124.67041778564453,-57.654720306396484 146.6020050048828,-63.40700149536133 134.48199462890625,-103.69200134277344 C120.5250015258789,-150.0850067138672 76.21399688720703,-192.072998046875 5.302999973297119,-192.072998046875 C-66.37200164794922,-192.072998046875 -109.91799926757812,-150.0850067138672 -123.8759994506836,-103.69200134277344 C-135.99600219726562,-63.40700149536133 -120.43292236328125,-57.632835388183594 -136.77291870117188,-17.16313362121582 C-154.71450805664062,27.27127456665039 -168.99708557128906,144.45655822753906 5.911884784698486,144.45655822753906 C180.82086181640625,144.45655822753906 167.6030731201172,28.453678131103516 144.8203887939453,-17.247892379760742z"></path></g><g opacity="1" transform="matrix(1,0,0,1,0,0)"><path fill="rgb(199,159,107)" fill-opacity="1" d=" M92.93426513671875,-130.22364807128906 C92.3794937133789,-105.63944244384766 58.9465217590332,-70.97913360595703 -4.6934099197387695,-72.79500579833984 C-73.28706359863281,-74.7765121459961 -96.187255859375,-102.59295654296875 -97.39837646484375,-127.5525131225586 C-99.31531524658203,-163.67401123046875 -44.301998138427734,-191.2220001220703 5.921000003814697,-191.2220001220703 C56.14400100708008,-191.2220001220703 94.43465423583984,-161.73031616210938 92.93426513671875,-130.22364807128906z"></path></g><g opacity="1" transform="matrix(1,0,0,1,0,0)"><g opacity="1" transform="matrix(1,0,0,1,0,0)"><path stroke-linecap="round" stroke-linejoin="round" fill-opacity="0" stroke="rgb(255,255,255)" stroke-opacity="1" stroke-width="6" d=" M61.03109359741211,-176.8060302734375 C62.40943145751953,-176.0177764892578 63.8336181640625,-175.17938232421875 65.29365539550781,-174.29010009765625"></path></g><g opacity="1" transform="matrix(1,0,0,1,0,0)"><path stroke-linecap="round" stroke-linejoin="round" fill-opacity="0" stroke="rgb(255,255,255)" stroke-opacity="1" stroke-width="6" d=" M41.45095443725586,-186.37234497070312 C41.45095443725586,-186.37234497070312 46.056434631347656,-184.64736938476562 53.10357666015625,-181.07830810546875"></path></g></g><g opacity="1" transform="matrix(1,0,0,1,0,0)"><path stroke-linecap="butt" stroke-linejoin="miter" fill-opacity="0" stroke-miterlimit="10" stroke="rgb(94,66,31)" stroke-opacity="1" stroke-width="8" d=" M168.71095275878906,-20.23118019104004 C146.7119598388672,-64.22618103027344 159.22900390625,-66.9280014038086 146.0260009765625,-110.81300354003906 C130.8209991455078,-161.3520050048828 82.5510025024414,-207.09300231933594 5.302999973297119,-207.09300231933594 C-72.7770004272461,-207.09300231933594 -120.21499633789062,-161.3520050048828 -135.4199981689453,-110.81300354003906 C-148.6230010986328,-66.9280014038086 -134.58843994140625,-63.857078552246094 -153.03396606445312,-18.86408042907715 C-173.28607177734375,30.53720474243164 -184.62789916992188,159.47618103027344 5.911884784698486,159.47618103027344 C196.45166015625,159.47618103027344 192.86495971679688,28.073820114135742 168.71095275878906,-20.23118019104004z"></path></g><g opacity="1" transform="matrix(1,0,0,1,0,0)"><path fill="rgb(240,216,179)" fill-opacity="1" d=" M77.36759948730469,-21.59172821044922 C38.6719970703125,-28.766693115234375 2.2139530181884766,-2.085242509841919 -9.031046867370605,9.561545372009277 C-11.953046798706055,12.587852478027344 -17.284046173095703,12.587852478027344 -20.20604705810547,9.561545372009277 C-31.451045989990234,-2.085242509841919 -58.045814514160156,-29.932952880859375 -93.81199645996094,-23.521072387695312 C-128.85556030273438,-17.15132713317871 -134.1814422607422,12.447686195373535 -131.82606506347656,35.17405700683594 C-129.62591552734375,56.401729583740234 -118.2268295288086,78.9266586303711 -89.61982727050781,89.21566009521484 C-86.16783142089844,90.45702362060547 -84.15345764160156,94.04165649414062 -84.93846130371094,97.6246566772461 C-88.40846252441406,113.46965789794922 -89.79808044433594,121.83602142333984 -73.59808349609375,145.29302978515625 C-70.78607940673828,149.36502075195312 -75.59263610839844,149.96656799316406 -70.69063568115234,150.64056396484375 C-63.30863952636719,151.65557861328125 -53.714107513427734,156.2493133544922 -42.56254959106445,163.9305877685547 C-24.93294334411621,176.07366943359375 -7.178585052490234,175.9167938232422 -7.178585052490234,175.9167938232422 C-7.178585052490234,175.9167938232422 12.901927947998047,175.88592529296875 26.828340530395508,166.85191345214844 C35.63716506958008,161.13746643066406 52.73294448852539,158.70016479492188 60.176727294921875,156.56124877929688 C64.84603118896484,155.3926239013672 58.68739700317383,154.7003631591797 60.48417282104492,150.0987091064453 C68.41316986083984,130.18348693847656 57.214141845703125,120.9975814819336 65.04915618896484,96.6502456665039 C66.00279235839844,93.20806121826172 66.17320251464844,89.1197509765625 69.73015594482422,88.24124908447266 C100.23779296875,80.73148345947266 121.6302719116211,73.30693054199219 128.3828887939453,43.745731353759766 C135.6128692626953,12.096064567565918 128.67405700683594,-12.079042434692383 77.36759948730469,-21.59172821044922z"></path></g><g opacity="1" transform="matrix(1,0,0,1,0,0)"><path fill="rgb(219,191,151)" fill-opacity="1" d=" M111.88455963134766,1.2873694896697998 C116.04185485839844,6.152403831481934 110.12317657470703,13.514287948608398 103.92102813720703,16.104278564453125 C61.176509857177734,33.961124420166016 19.080326080322266,34.20291519165039 -3.4126734733581543,30.207578659057617 C-10.086673736572266,29.022329330444336 -16.842010498046875,30.488582611083984 -23.60767364501953,30.42542839050293 C-54.50251770019531,31.423343658447266 -77.65874481201172,10.451534271240234 -92.75101470947266,8.32101058959961 C-107.93778228759766,6.864853858947754 -126.48419189453125,-2.224217653274536 -119.11758422851562,-8.597898483276367 C-110.0453109741211,-16.684797286987305 -104.63838195800781,-21.05997085571289 -85.04396057128906,-21.12928581237793 C-60.61716079711914,-21.363893508911133 -31.512786865234375,-2.056248903274536 -20.2747859954834,9.60116958618164 C-17.354785919189453,12.630105972290039 -12.027787208557129,12.627106666564941 -9.10478687286377,9.60116958618164 C2.1452131271362305,-2.044618844985962 37.81156921386719,-26.119171142578125 76.51154327392578,-18.939205169677734 C103.23104095458984,-13.982129096984863 106.04927825927734,-6.232616901397705 111.88455963134766,1.2873694896697998z"></path></g><g opacity="1" transform="matrix(1,0,0,1,0,0)"><path stroke-linecap="butt" stroke-linejoin="miter" fill-opacity="0" stroke-miterlimit="10" stroke="rgb(240,216,179)" stroke-opacity="1" stroke-width="8" d=" M77.36823272705078,-21.59172821044922 C38.67262649536133,-28.766693115234375 2.2139530181884766,-2.085242509841919 -9.031046867370605,9.561545372009277 C-11.953046798706055,12.587852478027344 -17.284046173095703,12.587852478027344 -20.20604705810547,9.561545372009277 C-31.451045989990234,-2.085242509841919 -62.00640106201172,-29.14515495300293 -93.81199645996094,-23.521072387695312 C-128.19618225097656,-17.406963348388672 -134.1814422607422,12.447686195373535 -131.82606506347656,35.17405700683594 C-129.62591552734375,56.401729583740234 -118.2268295288086,78.9266586303711 -89.61982727050781,89.21566009521484 C-86.16783142089844,90.45702362060547 -84.15345764160156,94.04165649414062 -84.93846130371094,97.6246566772461 C-88.40846252441406,113.46965789794922 -85.1102294921875,127.61724853515625 -73.59808349609375,145.29302978515625 C-70.89745330810547,149.4400177001953 -75.59263610839844,149.96656799316406 -70.69063568115234,150.64056396484375 C-63.30863952636719,151.65557861328125 -53.714107513427734,156.2493133544922 -42.56254959106445,163.9305877685547 C-24.93357276916504,176.07366943359375 -7.178585052490234,175.9167938232422 -7.178585052490234,175.9167938232422 C-7.178585052490234,175.9167938232422 12.54820728302002,175.33596801757812 26.828340530395508,166.85191345214844 C33.685997009277344,162.5973663330078 52.63564682006836,157.8118896484375 60.19004440307617,155.96487426757812 C64.94813537597656,154.90982055664062 58.51463317871094,154.62620544433594 60.48417282104492,150.0987091064453 C69.58078002929688,129.60865783691406 57.856380462646484,120.9975814819336 65.04915618896484,96.6502456665039 C65.92943572998047,93.17971801757812 66.17546844482422,89.13015747070312 69.73015594482422,88.24124908447266 C99.80909729003906,80.73148345947266 122.19963073730469,72.99542999267578 128.54530334472656,43.356170654296875 C135.21849060058594,13.082724571228027 128.6746826171875,-12.079042434692383 77.36823272705078,-21.59172821044922z"></path></g><g opacity="0.11" transform="matrix(1,0,0,1,0,0)"><path fill="rgb(158,118,61)" fill-opacity="1" d=" M71.08527374267578,137.59332275390625 C69.41427612304688,144.1933135986328 66.41317749023438,148.73634338378906 63.60317611694336,152.80633544921875 C60.793174743652344,156.8763427734375 64.875732421875,155.43177795410156 60.17772674560547,156.56124877929688 C52.637908935546875,158.64744567871094 34.30793380737305,162.22933959960938 26.8243408203125,166.85427856445312 C12.594218254089355,175.41232299804688 -7.1825852394104,175.91317749023438 -7.1825852394104,175.91317749023438 C-7.1825852394104,175.91317749023438 -24.937572479248047,176.0832977294922 -42.566551208496094,163.93357849121094 C-53.709476470947266,156.25331115722656 -66.49149322509766,152.6693572998047 -71.6520004272461,151.06927490234375 C-76.335205078125,149.53797912597656 -72.57308197021484,152.11203002929688 -75.9800796508789,148.5270233154297 C-79.82108306884766,144.48602294921875 -84.78457641601562,134.2105255126953 -86.35457611083984,129.11053466796875 C-74.42958068847656,134.34527587890625 -52.13234329223633,147.1593017578125 -34.880184173583984,154.8934326171875 C-10.996315956115723,165.4005889892578 10.528375625610352,160.02330017089844 19.695283889770508,153.5531005859375 C27.87791633605957,147.8150634765625 47.61667251586914,142.5444793701172 71.08527374267578,137.59332275390625z"></path></g><g opacity="1" transform="matrix(1,0,0,1,0,0)"><path stroke-linecap="round" stroke-linejoin="round" fill-opacity="0" stroke="rgb(178,149,114)" stroke-opacity="1" stroke-width="8" d=" M-77.924560546875,148.1412811279297 C-65.0282974243164,153.38954162597656 -54.8862419128418,156.86634826660156 -43.43423080444336,164.08648681640625 C-24.045412063598633,176.31033325195312 -9.655037879943848,176.19610595703125 -7.178585052490234,175.9167938232422 C-5.372853755950928,175.7133331298828 12.409652709960938,175.10186767578125 26.828340530395508,166.85191345214844 C34.30637741088867,162.4715118408203 44.69333267211914,159.03492736816406 62.95591354370117,154.39271545410156"></path></g></g><g transform="matrix(0.949999988079071,0,0,0.949999988079071,238.9492645263672,294)" opacity="1" style="display: block;"><g opacity="1" transform="matrix(1,0,0,1,0,0)"><g opacity="1" transform="matrix(1,0,0,1,0,0)"><path fill="rgb(219,191,151)" fill-opacity="1" d=" M34.12881088256836,86.83207702636719 C32.62163162231445,86.1425552368164 28.216590881347656,86.35021209716797 21.538745880126953,88.13859558105469 C18.838350296020508,88.86172485351562 13.771970748901367,90.42716979980469 5.920662879943848,90.06018829345703 C-1.9306449890136719,89.69320678710938 -5.868399620056152,89.1510238647461 -8.758759498596191,88.4489974975586 C-15.906280517578125,86.71395111083984 -22.029296875,85.58916473388672 -23.69711685180664,86.16825866699219 C-25.958538055419922,86.95343017578125 -24.34288787841797,89.85823822021484 -22.08915901184082,92.36845397949219 C-18.895095825195312,95.92546844482422 -7.192416667938232,100.70186614990234 4.122875213623047,101.05496215820312 C15.438167572021484,101.4080581665039 28.49363899230957,96.6059341430664 31.77804946899414,93.14569854736328 C34.095001220703125,90.70500946044922 36.171409606933594,87.76691436767578 34.12881088256836,86.83207702636719z"></path></g></g><g opacity="1" transform="matrix(1,0,0,1,0,0)"><path fill="rgb(255,244,233)" fill-opacity="1" d=" M32.25209426879883,89.24043273925781 C30.742218017578125,89.1524887084961 28.706275939941406,90.2735824584961 22.582576751708984,91.57996368408203 C20.106367111206055,92.10855102539062 13.017074584960938,93.68811798095703 5.726927757263184,93.46060943603516 C-1.5632195472717285,93.23309326171875 -8.993246078491211,91.98735809326172 -11.669339179992676,91.49962615966797 C-18.286773681640625,90.29364776611328 -20.587120056152344,88.2589340209961 -22.194393157958984,88.45706176757812 C-25.262781143188477,88.83495330810547 -24.9168701171875,92.3963623046875 -22.239349365234375,96.36409759521484 C-18.444744110107422,101.98836517333984 -5.971138954162598,107.03668212890625 4.260095596313477,107.40762329101562 C14.58079719543457,107.78172302246094 28.17884635925293,102.48274230957031 31.540693283081055,98.05364990234375 C34.39133834838867,94.33851623535156 35.172119140625,89.4109878540039 32.25209426879883,89.24043273925781z"></path></g><g opacity="1" transform="matrix(1,0,0,1,0,0)"><path fill="rgb(63,10,36)" fill-opacity="1" d=" M32.25209426879883,89.24043273925781 C30.9036865234375,88.87538146972656 27.587177276611328,89.02369689941406 21.691852569580078,90.29985046386719 C19.307741165161133,90.81632995605469 12.850680351257324,92.30178833007812 5.82725715637207,92.0828628540039 C-1.1961662769317627,91.86394500732422 -8.17038345336914,90.68928527832031 -10.746978759765625,90.2121810913086 C-17.11827850341797,89.03221130371094 -20.696687698364258,88.13628387451172 -22.194393157958984,88.45706176757812 C-24.224586486816406,88.89192199707031 -22.844938278198242,91.32532501220703 -20.591209411621094,93.83553314208984 C-17.39714813232422,97.39254760742188 -7.292746067047119,102.07860565185547 4.02254581451416,102.43170166015625 C15.337838172912598,102.78479766845703 26.9729061126709,98.0274887084961 30.2573184967041,94.5672607421875 C32.57427215576172,92.1265640258789 34.07921600341797,89.73486328125 32.25209426879883,89.24043273925781z"></path></g><g opacity="1" transform="matrix(1,0,0,1,0,0)"><path fill="rgb(178,70,96)" fill-opacity="1" d=" M22.97690200805664,98.71004486083984 C17.647478103637695,101.09754180908203 10.137821197509766,102.62411499023438 4.020175933837891,102.43344116210938 C-2.2691750526428223,102.23728942871094 -7.275452613830566,101.33885192871094 -12.03116226196289,99.076416015625 C-14.555813789367676,97.76140594482422 -11.927741050720215,98.26443481445312 -10.046016693115234,98.15266418457031 C-2.803478479385376,98.35134887695312 -0.4079534411430359,97.97732543945312 4.128958225250244,97.80533599853516 C10.989657402038574,97.56370544433594 20.027055740356445,95.91844940185547 24.373184204101562,96.02989196777344 C24.897428512573242,96.41150665283203 24.422353744506836,98.053955078125 22.97690200805664,98.71004486083984z"></path></g><g opacity="1" transform="matrix(1,0,0,1,0,0)"><path fill="rgb(4,0,1)" fill-opacity="1" d=" M32.07632827758789,92.40371704101562 C32.432193756103516,91.51571655273438 32.31970977783203,90.8550033569336 31.478342056274414,90.61996459960938 C30.167373657226562,90.25354766845703 27.27235984802246,90.43824768066406 21.54938316345215,91.69392395019531 C19.238780975341797,92.2010269165039 12.5449857711792,93.65464782714844 5.7289276123046875,93.44194793701172 C-1.0928707122802734,93.229248046875 -8.05706787109375,92.06684875488281 -10.559975624084473,91.59674835205078 C-16.740131378173828,90.43602752685547 -20.04315757751465,89.53329467773438 -21.499834060668945,89.8578109741211 C-22.434873580932617,90.0665054321289 -22.62563133239746,90.71855163574219 -22.338899612426758,91.61514282226562 C-23.373310089111328,90.02623748779297 -23.609041213989258,88.75959014892578 -22.197134017944336,88.45806121826172 C-20.69605827331543,88.13690948486328 -17.11827850341797,89.03221130371094 -10.74560832977295,90.21255493164062 C-8.168012619018555,90.6902847290039 -1.1941663026809692,91.86320495605469 5.828257083892822,92.08212280273438 C12.850680351257324,92.3010482788086 19.306001663208008,90.81707000732422 21.691482543945312,90.30022430419922 C27.589176177978516,89.02269744873047 30.902687072753906,88.8794937133789 32.25072479248047,89.2417984008789 C33.52662658691406,89.58497619628906 33.18174743652344,90.8462905883789 32.07632827758789,92.40371704101562z"></path></g></g><g transform="matrix(0.9485644102096558,0.05220671370625496,-0.05220671370625496,0.9485644102096558,236.05946350097656,300.47021484375)" opacity="1" style="display: block;"><g opacity="1" transform="matrix(1,0,0,1,0,0)"><path fill="rgb(219,191,151)" fill-opacity="1" d=" M24.29627799987793,33.244449615478516 C20.581960678100586,33.16233825683594 15.044431686401367,34.654727935791016 11.923975944519043,35.83541488647461 C8.696630477905273,37.05647277832031 0.6762472987174988,37.285179138183594 -2.125185489654541,36.06412124633789 C-4.83358907699585,34.8834342956543 -9.639632225036621,33.39167785644531 -12.863141059875488,33.473785400390625 C-22.89193344116211,33.72874450683594 -27.544878005981445,39.351226806640625 -27.45184898376465,48.49577331542969 C-27.381669998168945,55.40005111694336 -23.96500015258789,68.89753723144531 5.863999843597412,68.89753723144531 C35.395999908447266,68.89753723144531 40.65082931518555,55.39530563354492 41.10590744018555,48.26643371582031 C41.68877029418945,39.1348876953125 35.85104751586914,33.49940872192383 24.29627799987793,33.244449615478516z"></path></g><g opacity="1" transform="matrix(1,0,0,1,0,0)"><g opacity="1" transform="matrix(1,0,0,1,0,0)"><path fill="rgb(240,216,180)" fill-opacity="1" d=" M-2.2952370643615723,48.80615997314453 C-0.06597881764173508,53.10010528564453 -1.8580514192581177,58.38688659667969 -5.365647315979004,60.14760208129883 C-8.87324333190918,61.908321380615234 -13.175921440124512,59.99301528930664 -15.67415714263916,55.84492111206055 C-19.428510665893555,49.61140823364258 -17.84160614013672,44.636695861816406 -14.334010124206543,42.875980377197266 C-10.826414108276367,41.11526107788086 -5.787353038787842,42.07973098754883 -2.2952370643615723,48.80615997314453z"></path></g><g opacity="1" transform="matrix(1,0,0,1,0,0)"><path fill="rgb(103,68,48)" fill-opacity="1" d=" M-3.374776601791382,46.85859298706055 C-1.1455183029174805,51.15253829956055 -2.1817283630371094,56.060508728027344 -5.689323902130127,57.82122802734375 C-9.196920394897461,59.58194351196289 -13.846494674682617,57.52889633178711 -16.07575225830078,53.234954833984375 C-18.305011749267578,48.941009521484375 -17.268800735473633,44.03303909301758 -13.761205673217773,42.27231979370117 C-10.253609657287598,40.51160430908203 -5.604034900665283,42.56465148925781 -3.374776601791382,46.85859298706055z"></path></g><g opacity="1" transform="matrix(1,0,0,1,0,0)"><path fill="rgb(54,22,9)" fill-opacity="1" d=" M-3.375776529312134,46.85959243774414 C-2.9590706825256348,47.662841796875 -2.651503562927246,48.4918327331543 -2.4624454975128174,49.31544876098633 C-4.700443744659424,45.0782470703125 -9.643105506896973,43.834449768066406 -12.969383239746094,45.50468444824219 C-16.2956600189209,47.174293518066406 -16.766435623168945,51.154537200927734 -14.566397666931152,55.429481506347656 C-15.137572288513184,54.788082122802734 -15.652307510375977,54.05320358276367 -16.076753616333008,53.2355842590332 C-18.308012008666992,48.93864059448242 -17.271800994873047,44.03266906738281 -13.763575553894043,42.27132034301758 C-10.255349159240723,40.50997543334961 -5.607035160064697,42.56264877319336 -3.375776529312134,46.85959243774414z"></path></g></g><g opacity="1" transform="matrix(1,0,0,1,0,0)"><g opacity="1" transform="matrix(1,0,0,1,0,0)"><path fill="rgb(240,216,180)" fill-opacity="1" d=" M12.192276000976562,48.21769714355469 C9.623421669006348,52.51163864135742 11.688935279846191,57.799049377441406 15.730182647705078,59.55976867675781 C19.77142906188965,61.32048416137695 24.729358673095703,59.40454864501953 27.608144760131836,55.25645446777344 C31.93395233154297,49.022945404052734 30.105478286743164,44.04823303222656 26.064231872558594,42.287513732910156 C22.02298355102539,40.526798248291016 16.216154098510742,41.49126434326172 12.192276000976562,48.21769714355469z"></path></g><g opacity="1" transform="matrix(1,0,0,1,0,0)"><path fill="rgb(103,68,48)" fill-opacity="1" d=" M13.436258316040039,46.2701301574707 C10.867403984069824,50.56407165527344 12.061756134033203,55.4720458984375 16.103002548217773,57.23276138305664 C20.144250869750977,58.99348068237305 25.50263023376465,56.940433502197266 28.07148551940918,52.646488189697266 C30.640338897705078,48.35254669189453 29.445358276367188,43.44457244873047 25.404109954833984,41.68385696411133 C21.362863540649414,39.92313766479492 16.00511360168457,41.9761848449707 13.436258316040039,46.2701301574707z"></path></g><g opacity="1" transform="matrix(1,0,0,1,0,0)"><path fill="rgb(54,22,9)" fill-opacity="1" d=" M13.43725872039795,46.2711296081543 C12.956917762756348,47.074378967285156 12.603727340698242,47.90336608886719 12.385686874389648,48.726985931396484 C14.9645414352417,44.48978042602539 20.658851623535156,43.2459831237793 24.491687774658203,44.916221618652344 C28.324525833129883,46.5858268737793 28.866756439208984,50.566070556640625 26.331531524658203,54.84101486206055 C26.989652633666992,54.199615478515625 27.583513259887695,53.46473693847656 28.07285499572754,52.647117614746094 C30.643709182739258,48.35017395019531 29.44898796081543,43.4442024230957 25.4071102142334,41.68285369873047 C21.365232467651367,39.9215087890625 16.008113861083984,41.974185943603516 13.43725872039795,46.2711296081543z"></path></g></g></g><g transform="matrix(-0.9499961733818054,0,0,0.8549999594688416,246.578369140625,285.9772033691406)" opacity="1" style="display: block;"><g opacity="1" transform="matrix(1,0,0,1,0,0)"><path fill="rgb(219,191,151)" fill-opacity="1" d=" M-38.52299880981445,9.821999549865723 C-38.52299880981445,29.33799934387207 -50.38999938964844,45.15800094604492 -63.78300094604492,45.15800094604492 C-77.1760025024414,45.15800094604492 -89.04399871826172,29.33799934387207 -89.04399871826172,9.821999549865723 C-89.04399871826172,-9.694000244140625 -77.1760025024414,-25.513999938964844 -63.78300094604492,-25.513999938964844 C-50.38999938964844,-25.513999938964844 -38.52299880981445,-9.694000244140625 -38.52299880981445,9.821999549865723z"></path></g><g opacity="1" transform="matrix(1,0,0,1,0,0)"><g opacity="1" transform="matrix(1,0,0,1,0,0)"><path fill="rgb(17,17,17)" fill-opacity="1" d=" M-39.53300094604492,4.769999980926514 C-39.53300094604492,24.285999298095703 -50.38999938964844,40.10599899291992 -63.78300094604492,40.10599899291992 C-77.1760025024414,40.10599899291992 -88.03299713134766,24.285999298095703 -88.03299713134766,4.769999980926514 C-88.03299713134766,-14.746000289916992 -77.1760025024414,-30.56599998474121 -63.78300094604492,-30.56599998474121 C-50.38999938964844,-30.56599998474121 -39.53300094604492,-14.746000289916992 -39.53300094604492,4.769999980926514z"></path></g><g opacity="1" transform="matrix(1,0,0,1,0,0)"><path fill="rgb(245,245,245)" fill-opacity="1" d=" M-50.46099853515625,-12.675999641418457 C-50.46099853515625,-6.974999904632568 -56.42499923706055,-11.53499984741211 -63.78300094604492,-11.53499984741211 C-71.14099884033203,-11.53499984741211 -77.10600280761719,-6.8480000495910645 -77.10600280761719,-12.675999641418457 C-77.10600280761719,-16.305999755859375 -71.14099884033203,-23.450000762939453 -63.78300094604492,-23.450000762939453 C-56.42499923706055,-23.450000762939453 -50.46099853515625,-16.30500030517578 -50.46099853515625,-12.675999641418457z"></path></g><g opacity="1" transform="matrix(1,0,0,1,0,0)"><path fill="rgb(72,73,73)" fill-opacity="1" d=" M-46.70100021362305,12.52400016784668 C-46.70100021362305,19.60300064086914 -53.797000885009766,33.27199935913086 -63.78300094604492,33.27199935913086 C-73.76899719238281,33.27199935913086 -80.86499786376953,19.60300064086914 -80.86499786376953,12.52400016784668 C-80.86499786376953,1.1670000553131104 -73.76899719238281,11.875 -63.78300094604492,11.875 C-53.797000885009766,11.875 -46.70100021362305,0.652999997138977 -46.70100021362305,12.52400016784668z"></path></g></g></g><g transform="matrix(0.872188925743103,0,0,0.8250726461410522,239.04373168945312,284.5539245605469)" opacity="1" style="display: block;"><g opacity="1" transform="matrix(1,0,0,1,0,0)"><path fill="rgb(219,191,151)" fill-opacity="1" d=" M-38.52299880981445,9.821999549865723 C-38.52299880981445,29.33799934387207 -50.38999938964844,45.15800094604492 -63.78300094604492,45.15800094604492 C-77.1760025024414,45.15800094604492 -89.04399871826172,29.33799934387207 -89.04399871826172,9.821999549865723 C-89.04399871826172,-9.694000244140625 -77.1760025024414,-25.513999938964844 -63.78300094604492,-25.513999938964844 C-50.38999938964844,-25.513999938964844 -38.52299880981445,-9.694000244140625 -38.52299880981445,9.821999549865723z"></path></g><g opacity="1" transform="matrix(1,0,0,1,0,0)"><g opacity="1" transform="matrix(1,0,0,1,0,0)"><path fill="rgb(17,17,17)" fill-opacity="1" d=" M-39.53300094604492,4.769999980926514 C-39.53300094604492,24.285999298095703 -50.38999938964844,40.10599899291992 -63.78300094604492,40.10599899291992 C-77.1760025024414,40.10599899291992 -88.03299713134766,24.285999298095703 -88.03299713134766,4.769999980926514 C-88.03299713134766,-14.746000289916992 -77.1760025024414,-30.56599998474121 -63.78300094604492,-30.56599998474121 C-50.38999938964844,-30.56599998474121 -39.53300094604492,-14.746000289916992 -39.53300094604492,4.769999980926514z"></path></g><g opacity="1" transform="matrix(1,0,0,1,0,0)"><path fill="rgb(245,245,245)" fill-opacity="1" d=" M-50.46099853515625,-12.675999641418457 C-50.46099853515625,-6.974999904632568 -56.42499923706055,-11.53499984741211 -63.78300094604492,-11.53499984741211 C-71.14099884033203,-11.53499984741211 -77.10600280761719,-6.8480000495910645 -77.10600280761719,-12.675999641418457 C-77.10600280761719,-16.305999755859375 -71.14099884033203,-23.450000762939453 -63.78300094604492,-23.450000762939453 C-56.42499923706055,-23.450000762939453 -50.46099853515625,-16.30500030517578 -50.46099853515625,-12.675999641418457z"></path></g><g opacity="1" transform="matrix(1,0,0,1,0,0)"><path fill="rgb(72,73,73)" fill-opacity="1" d=" M-46.70100021362305,12.52400016784668 C-46.70100021362305,19.60300064086914 -53.797000885009766,33.27199935913086 -63.78300094604492,33.27199935913086 C-73.76899719238281,33.27199935913086 -80.86499786376953,19.60300064086914 -80.86499786376953,12.52400016784668 C-80.86499786376953,1.1670000553131104 -73.76899719238281,11.875 -63.78300094604492,11.875 C-53.797000885009766,11.875 -46.70100021362305,0.652999997138977 -46.70100021362305,12.52400016784668z"></path></g></g></g></g></svg>